<?xml version="1.0" standalone="no"?>
<!DOCTYPE svg PUBLIC "-//W3C//DTD SVG 20010904//EN"
 "http://www.w3.org/TR/2001/REC-SVG-20010904/DTD/svg10.dtd">
<svg version="1.0" xmlns="http://www.w3.org/2000/svg"
 width="720.000000pt" height="720.000000pt" viewBox="0 0 720.000000 720.000000"
 preserveAspectRatio="xMidYMid meet">
<metadata>
Created by potrace 1.14, written by Peter Selinger 2001-2017
</metadata>
<g transform="translate(0.000000,720.000000) scale(0.100000,-0.100000)"
fill="#000000" stroke="none">
<path d="M4130 6641 c-355 -96 -645 -455 -891 -1103 -131 -345 -209 -723 -209
-1014 l0 -92 -253 -253 c-435 -435 -686 -767 -882 -1164 -243 -493 -299 -976
-160 -1391 61 -181 191 -388 333 -531 223 -222 477 -316 807 -298 550 31 981
222 1411 628 l91 86 164 -145 c199 -177 341 -298 391 -331 43 -29 75 -24 84
13 14 54 -75 153 -379 428 l-164 149 79 101 c325 410 655 1074 738 1483 64
319 19 595 -138 831 -89 135 -211 230 -352 274 -106 33 -299 33 -415 -1 -314
-90 -676 -373 -918 -719 -28 -40 -53 -70 -54 -65 -12 43 -124 670 -129 721
l-6 68 478 425 c595 529 711 648 878 899 79 119 116 192 152 300 24 74 27 102
28 210 1 107 -2 135 -23 193 -47 138 -167 253 -308 297 -85 26 -258 27 -353 1z
m328 -249 c101 -50 172 -159 172 -266 0 -127 -53 -252 -177 -418 -141 -187
-297 -335 -748 -709 -231 -191 -421 -346 -422 -345 -6 6 38 249 61 336 98 376
346 906 541 1155 193 247 396 335 573 247z m128 -2313 c217 -39 377 -226 441
-514 21 -97 21 -304 -1 -430 -36 -206 -151 -504 -305 -790 -68 -127 -217 -351
-318 -478 l-78 -98 -48 53 c-88 97 -214 252 -279 343 -207 288 -410 718 -516
1092 l-20 71 70 94 c128 171 372 403 541 512 203 132 352 175 513 145z m-1526
-7 c0 -4 14 -86 31 -182 30 -177 88 -434 132 -590 l23 -85 -37 -80 c-96 -208
-142 -406 -143 -615 -1 -151 9 -201 44 -220 20 -11 54 9 72 43 6 12 15 90 19
172 4 83 17 196 28 252 21 102 67 243 80 243 3 0 19 -35 35 -78 107 -289 302
-626 508 -884 46 -57 147 -169 226 -249 l142 -146 -90 -86 c-358 -341 -756
-524 -1214 -558 -245 -18 -390 13 -545 118 -182 123 -332 356 -398 620 -25 99
-28 124 -27 303 0 164 3 212 22 300 105 486 424 1018 960 1602 109 119 132
140 132 120z"/>
</g>
</svg>
